STARTFONT 2.1
COMMENT $XConsortium: lutBS12.bdf,v 1.9 94/04/02 16:11:11 gildea Exp $
COMMENT  (c) Copyright Bigelow & Holmes 1986, 1985. Lucida is a registered
COMMENT  trademark of Bigelow & Holmes. See LEGAL NOTICE file for terms 
COMMENT  of the license. 
COMMENT GRID 0012 0012 0200 0200
COMMENT  
COMMENT  Translation to ISO8859-2 by Cub Soft;  Petr.Kolar@vslib.cz
COMMENT  
FONT -B&H-LucidaTypewriter-Bold-R-Normal-Sans-12-120-75-75-M-70-ISO8859-2
SIZE 12 72 72
FONTBOUNDINGBOX 7 13 0 -2
STARTPROPERTIES 20
COMMENT Begin LogicalFontDescription
FONTNAME_REGISTRY ""
FOUNDRY "B&H"
FAMILY_NAME "LucidaTypewriter"
WEIGHT_NAME "Bold"
SLANT "R"
SETWIDTH_NAME "Normal"
ADD_STYLE_NAME "Sans"
PIXEL_SIZE 12
POINT_SIZE 120
RESOLUTION_X 75
RESOLUTION_Y 75
SPACING "M"
AVERAGE_WIDTH 70
CHARSET_REGISTRY "ISO8859"
CHARSET_ENCODING "2"
COMMENT END LogicalFontDescription
FONT_ASCENT 11
FONT_DESCENT 2
DEFAULT_CHAR 0
COPYRIGHT "Copyright Bigelow & Holmes 1986, 1985., Copyright 1996 Cub Soft"
FACE_NAME "Lucida Sans Typewriter Bold"
ENDPROPERTIES
CHARS 191
STARTCHAR space
ENCODING 32
SWIDTH 602 0
DWIDTH 7 0
BBX 1 1 0 0
BITMAP
00
ENDCHAR
STARTCHAR exclam
ENCODING 33
SWIDTH 602 0
DWIDTH 7 0
BBX 2 9 3 0
BITMAP
c0
c0
c0
c0
c0
40
00
c0
c0
ENDCHAR
STARTCHAR quotedbl
ENCODING 34
SWIDTH 602 0
DWIDTH 7 0
BBX 5 4 2 6
BITMAP
d8
d8
90
90
ENDCHAR
STARTCHAR numbersign
ENCODING 35
SWIDTH 602 0
DWIDTH 7 0
BBX 7 9 0 0
BITMAP
6c
6c
fe
6c
6c
fe
6c
6c
6c
ENDCHAR
STARTCHAR dollar
ENCODING 36
SWIDTH 602 0
DWIDTH 7 0
BBX 6 13 1 -2
BITMAP
10
10
78
c4
c0
e0
78
1c
0c
8c
78
20
20
ENDCHAR
STARTCHAR percent
ENCODING 37
SWIDTH 602 0
DWIDTH 7 0
BBX 7 9 0 0
BITMAP
62
b6
b4
68
10
2c
56
d6
8c
ENDCHAR
STARTCHAR ampersand
ENCODING 38
SWIDTH 602 0
DWIDTH 7 0
BBX 6 9 1 0
BITMAP
70
d8
d8
d0
64
f4
d8
cc
74
ENDCHAR
STARTCHAR apostrophe
ENCODING 39
SWIDTH 602 0
DWIDTH 7 0
BBX 2 4 3 6
BITMAP
c0
c0
40
80
ENDCHAR
STARTCHAR parenleft
ENCODING 40
SWIDTH 602 0
DWIDTH 7 0
BBX 4 11 2 -1
BITMAP
30
60
c0
c0
c0
c0
c0
c0
c0
60
30
ENDCHAR
STARTCHAR parenright
ENCODING 41
SWIDTH 602 0
DWIDTH 7 0
BBX 4 11 1 -1
BITMAP
c0
60
30
30
30
30
30
30
30
60
c0
ENDCHAR
STARTCHAR asterisk
ENCODING 42
SWIDTH 602 0
DWIDTH 7 0
BBX 5 5 1 4
BITMAP
20
a8
70
a8
20
ENDCHAR
STARTCHAR plus
ENCODING 43
SWIDTH 602 0
DWIDTH 7 0
BBX 7 7 0 1
BITMAP
10
10
10
fe
10
10
10
ENDCHAR
STARTCHAR comma
ENCODING 44
SWIDTH 602 0
DWIDTH 7 0
BBX 2 4 3 -2
BITMAP
c0
c0
40
80
ENDCHAR
STARTCHAR minus
ENCODING 45
SWIDTH 602 0
DWIDTH 7 0
BBX 6 1 1 4
BITMAP
fc
ENDCHAR
STARTCHAR period
ENCODING 46
SWIDTH 602 0
DWIDTH 7 0
BBX 2 2 3 0
BITMAP
c0
c0
ENDCHAR
STARTCHAR slash
ENCODING 47
SWIDTH 602 0
DWIDTH 7 0
BBX 7 11 0 -1
BITMAP
06
06
0c
0c
18
18
30
60
60
c0
c0
ENDCHAR
STARTCHAR zero
ENCODING 48
SWIDTH 602 0
DWIDTH 7 0
BBX 6 9 1 0
BITMAP
78
cc
cc
cc
cc
cc
cc
cc
78
ENDCHAR
STARTCHAR one
ENCODING 49
SWIDTH 602 0
DWIDTH 7 0
BBX 4 9 1 0
BITMAP
30
f0
30
30
30
30
30
30
30
ENDCHAR
STARTCHAR two
ENCODING 50
SWIDTH 602 0
DWIDTH 7 0
BBX 6 9 1 0
BITMAP
78
cc
0c
1c
38
60
c0
fc
fc
ENDCHAR
STARTCHAR three
ENCODING 51
SWIDTH 602 0
DWIDTH 7 0
BBX 6 9 1 0
BITMAP
78
cc
0c
0c
78
0c
0c
cc
78
ENDCHAR
STARTCHAR four
ENCODING 52
SWIDTH 602 0
DWIDTH 7 0
BBX 6 9 1 0
BITMAP
18
38
58
58
98
fc
fc
18
18
ENDCHAR
STARTCHAR five
ENCODING 53
SWIDTH 602 0
DWIDTH 7 0
BBX 6 9 1 0
BITMAP
7c
7c
40
40
78
0c
0c
cc
78
ENDCHAR
STARTCHAR six
ENCODING 54
SWIDTH 602 0
DWIDTH 7 0
BBX 6 9 1 0
BITMAP
78
cc
c0
c0
f8
cc
cc
cc
78
ENDCHAR
STARTCHAR seven
ENCODING 55
SWIDTH 602 0
DWIDTH 7 0
BBX 6 9 1 0
BITMAP
fc
fc
0c
18
30
30
60
60
60
ENDCHAR
STARTCHAR eight
ENCODING 56
SWIDTH 602 0
DWIDTH 7 0
BBX 6 9 1 0
BITMAP
78
cc
cc
ec
78
dc
cc
cc
78
ENDCHAR
STARTCHAR nine
ENCODING 57
SWIDTH 602 0
DWIDTH 7 0
BBX 6 9 1 0
BITMAP
78
cc
cc
cc
7c
0c
0c
cc
78
ENDCHAR
STARTCHAR colon
ENCODING 58
SWIDTH 602 0
DWIDTH 7 0
BBX 2 7 3 0
BITMAP
c0
c0
00
00
00
c0
c0
ENDCHAR
STARTCHAR semicolon
ENCODING 59
SWIDTH 602 0
DWIDTH 7 0
BBX 2 9 3 -2
BITMAP
c0
c0
00
00
00
c0
c0
40
80
ENDCHAR
STARTCHAR less
ENCODING 60
SWIDTH 602 0
DWIDTH 7 0
BBX 6 7 0 1
BITMAP
0c
38
60
c0
60
38
0c
ENDCHAR
STARTCHAR equal
ENCODING 61
SWIDTH 602 0
DWIDTH 7 0
BBX 6 3 1 3
BITMAP
fc
00
fc
ENDCHAR
STARTCHAR greater
ENCODING 62
SWIDTH 602 0
DWIDTH 7 0
BBX 6 7 1 1
BITMAP
c0
70
18
0c
18
70
c0
ENDCHAR
STARTCHAR question
ENCODING 63
SWIDTH 602 0
DWIDTH 7 0
BBX 5 9 2 0
BITMAP
70
98
18
30
60
60
00
60
60
ENDCHAR
STARTCHAR at
ENCODING 64
SWIDTH 602 0
DWIDTH 7 0
BBX 7 9 0 0
BITMAP
7c
c6
9e
b6
b6
b6
9a
c0
7c
ENDCHAR
STARTCHAR A
ENCODING 65
SWIDTH 602 0
DWIDTH 7 0
BBX 6 9 1 0
BITMAP
30
30
58
58
58
fc
8c
8c
8c
ENDCHAR
STARTCHAR B
ENCODING 66
SWIDTH 602 0
DWIDTH 7 0
BBX 6 9 1 0
BITMAP
f8
cc
cc
c8
f0
c8
cc
cc
f8
ENDCHAR
STARTCHAR C
ENCODING 67
SWIDTH 602 0
DWIDTH 7 0
BBX 6 9 1 0
BITMAP
38
6c
c0
c0
c0
c0
c0
64
38
ENDCHAR
STARTCHAR D
ENCODING 68
SWIDTH 602 0
DWIDTH 7 0
BBX 6 9 1 0
BITMAP
f0
d8
cc
cc
cc
cc
cc
d8
f0
ENDCHAR
STARTCHAR E
ENCODING 69
SWIDTH 602 0
DWIDTH 7 0
BBX 5 9 2 0
BITMAP
f8
c0
c0
c0
f0
c0
c0
c0
f8
ENDCHAR
STARTCHAR F
ENCODING 70
SWIDTH 602 0
DWIDTH 7 0
BBX 5 9 2 0
BITMAP
f8
c0
c0
c0
f0
c0
c0
c0
c0
ENDCHAR
STARTCHAR G
ENCODING 71
SWIDTH 602 0
DWIDTH 7 0
BBX 6 9 1 0
BITMAP
38
6c
c0
c0
c0
cc
cc
6c
3c
ENDCHAR
STARTCHAR H
ENCODING 72
SWIDTH 602 0
DWIDTH 7 0
BBX 6 9 1 0
BITMAP
cc
cc
cc
cc
fc
cc
cc
cc
cc
ENDCHAR
STARTCHAR I
ENCODING 73
SWIDTH 602 0
DWIDTH 7 0
BBX 6 9 1 0
BITMAP
fc
30
30
30
30
30
30
30
fc
ENDCHAR
STARTCHAR J
ENCODING 74
SWIDTH 602 0
DWIDTH 7 0
BBX 5 9 1 0
BITMAP
f8
18
18
18
18
18
18
18
f0
ENDCHAR
STARTCHAR K
ENCODING 75
SWIDTH 602 0
DWIDTH 7 0
BBX 6 9 1 0
BITMAP
c4
cc
c8
d0
e0
f0
d8
cc
cc
ENDCHAR
STARTCHAR L
ENCODING 76
SWIDTH 602 0
DWIDTH 7 0
BBX 5 9 2 0
BITMAP
c0
c0
c0
c0
c0
c0
c0
c0
f8
ENDCHAR
STARTCHAR M
ENCODING 77
SWIDTH 602 0
DWIDTH 7 0
BBX 6 9 1 0
BITMAP
cc
cc
fc
fc
ac
ac
ac
ac
8c
ENDCHAR
STARTCHAR N
ENCODING 78
SWIDTH 602 0
DWIDTH 7 0
BBX 6 9 1 0
BITMAP
c4
c4
e4
f4
b4
bc
9c
8c
8c
ENDCHAR
STARTCHAR O
ENCODING 79
SWIDTH 602 0
DWIDTH 7 0
BBX 6 9 1 0
BITMAP
78
48
cc
cc
cc
cc
cc
48
78
ENDCHAR
STARTCHAR P
ENCODING 80
SWIDTH 602 0
DWIDTH 7 0
BBX 6 9 1 0
BITMAP
f8
cc
cc
cc
c8
f0
c0
c0
c0
ENDCHAR
STARTCHAR Q
ENCODING 81
SWIDTH 602 0
DWIDTH 7 0
BBX 6 11 1 -2
BITMAP
78
48
cc
cc
cc
cc
cc
48
78
18
0c
ENDCHAR
STARTCHAR R
ENCODING 82
SWIDTH 602 0
DWIDTH 7 0
BBX 6 9 1 0
BITMAP
f8
cc
cc
c8
f0
d8
d8
cc
cc
ENDCHAR
STARTCHAR S
ENCODING 83
SWIDTH 602 0
DWIDTH 7 0
BBX 6 9 1 0
BITMAP
78
cc
c0
e0
78
1c
0c
cc
78
ENDCHAR
STARTCHAR T
ENCODING 84
SWIDTH 602 0
DWIDTH 7 0
BBX 6 9 1 0
BITMAP
fc
30
30
30
30
30
30
30
30
ENDCHAR
STARTCHAR U
ENCODING 85
SWIDTH 602 0
DWIDTH 7 0
BBX 6 9 1 0
BITMAP
c4
c4
c4
c4
c4
c4
c4
68
30
ENDCHAR
STARTCHAR V
ENCODING 86
SWIDTH 602 0
DWIDTH 7 0
BBX 6 9 1 0
BITMAP
cc
cc
cc
c8
68
68
70
30
30
ENDCHAR
STARTCHAR W
ENCODING 87
SWIDTH 602 0
DWIDTH 7 0
BBX 6 9 1 0
BITMAP
c4
c4
d4
d4
d4
7c
68
68
68
ENDCHAR
STARTCHAR X
ENCODING 88
SWIDTH 602 0
DWIDTH 7 0
BBX 6 9 1 0
BITMAP
cc
cc
68
70
30
38
58
cc
cc
ENDCHAR
STARTCHAR Y
ENCODING 89
SWIDTH 602 0
DWIDTH 7 0
BBX 6 9 1 0
BITMAP
cc
cc
cc
48
78
30
30
30
30
ENDCHAR
STARTCHAR Z
ENCODING 90
SWIDTH 602 0
DWIDTH 7 0
BBX 6 9 1 0
BITMAP
fc
0c
1c
38
30
70
e0
c0
fc
ENDCHAR
STARTCHAR bracketleft
ENCODING 91
SWIDTH 602 0
DWIDTH 7 0
BBX 4 11 2 -1
BITMAP
f0
c0
c0
c0
c0
c0
c0
c0
c0
c0
f0
ENDCHAR
STARTCHAR backslash
ENCODING 92
SWIDTH 602 0
DWIDTH 7 0
BBX 7 11 0 -1
BITMAP
c0
c0
60
60
30
30
18
0c
0c
06
06
ENDCHAR
STARTCHAR bracketright
ENCODING 93
SWIDTH 602 0
DWIDTH 7 0
BBX 4 11 2 -1
BITMAP
f0
30
30
30
30
30
30
30
30
30
f0
ENDCHAR
STARTCHAR asciicircum
ENCODING 94
SWIDTH 602 0
DWIDTH 7 0
BBX 7 7 0 2
BITMAP
10
38
28
6c
44
c6
82
ENDCHAR
STARTCHAR underscore
ENCODING 95
SWIDTH 602 0
DWIDTH 7 0
BBX 7 1 0 -1
BITMAP
fe
ENDCHAR
STARTCHAR grave
ENCODING 96
SWIDTH 602 0
DWIDTH 7 0
BBX 3 2 2 8
BITMAP
c0
60
ENDCHAR
STARTCHAR a
ENCODING 97
SWIDTH 602 0
DWIDTH 7 0
BBX 6 7 1 0
BITMAP
78
cc
0c
7c
cc
cc
74
ENDCHAR
STARTCHAR b
ENCODING 98
SWIDTH 602 0
DWIDTH 7 0
BBX 6 10 1 0
BITMAP
c0
c0
c0
d8
ec
cc
cc
cc
cc
f8
ENDCHAR
STARTCHAR c
ENCODING 99
SWIDTH 602 0
DWIDTH 7 0
BBX 6 7 1 0
BITMAP
78
cc
c0
c0
c0
c4
78
ENDCHAR
STARTCHAR d
ENCODING 100
SWIDTH 602 0
DWIDTH 7 0
BBX 6 10 1 0
BITMAP
0c
0c
0c
7c
cc
cc
cc
cc
dc
6c
ENDCHAR
STARTCHAR e
ENCODING 101
SWIDTH 602 0
DWIDTH 7 0
BBX 6 7 1 0
BITMAP
78
cc
cc
fc
c0
c4
78
ENDCHAR
STARTCHAR f
ENCODING 102
SWIDTH 602 0
DWIDTH 7 0
BBX 6 10 1 0
BITMAP
3c
60
60
fc
60
60
60
60
60
60
ENDCHAR
STARTCHAR g
ENCODING 103
SWIDTH 602 0
DWIDTH 7 0
BBX 6 9 1 -2
BITMAP
7c
cc
cc
cc
dc
6c
0c
cc
78
ENDCHAR
STARTCHAR h
ENCODING 104
SWIDTH 602 0
DWIDTH 7 0
BBX 6 10 1 0
BITMAP
c0
c0
c0
d8
ec
cc
cc
cc
cc
cc
ENDCHAR
STARTCHAR i
ENCODING 105
SWIDTH 602 0
DWIDTH 7 0
BBX 4 10 1 0
BITMAP
30
30
00
f0
30
30
30
30
30
30
ENDCHAR
STARTCHAR j
ENCODING 106
SWIDTH 602 0
DWIDTH 7 0
BBX 4 12 1 -2
BITMAP
30
30
00
f0
30
30
30
30
30
30
30
e0
ENDCHAR
STARTCHAR k
ENCODING 107
SWIDTH 602 0
DWIDTH 7 0
BBX 6 10 1 0
BITMAP
c0
c0
c0
cc
c8
d0
f0
d8
cc
cc
ENDCHAR
STARTCHAR l
ENCODING 108
SWIDTH 602 0
DWIDTH 7 0
BBX 4 10 1 0
BITMAP
f0
30
30
30
30
30
30
30
30
30
ENDCHAR
STARTCHAR m
ENCODING 109
SWIDTH 602 0
DWIDTH 7 0
BBX 6 7 1 0
BITMAP
f8
d4
d4
d4
d4
d4
d4
ENDCHAR
STARTCHAR n
ENCODING 110
SWIDTH 602 0
DWIDTH 7 0
BBX 6 7 1 0
BITMAP
d8
ec
cc
cc
cc
cc
cc
ENDCHAR
STARTCHAR o
ENCODING 111
SWIDTH 602 0
DWIDTH 7 0
BBX 6 7 1 0
BITMAP
78
cc
cc
cc
cc
cc
78
ENDCHAR
STARTCHAR p
ENCODING 112
SWIDTH 602 0
DWIDTH 7 0
BBX 6 9 1 -2
BITMAP
d8
ec
cc
cc
cc
cc
f8
c0
c0
ENDCHAR
STARTCHAR q
ENCODING 113
SWIDTH 602 0
DWIDTH 7 0
BBX 6 9 1 -2
BITMAP
7c
cc
cc
cc
cc
dc
6c
0c
0c
ENDCHAR
STARTCHAR r
ENCODING 114
SWIDTH 602 0
DWIDTH 7 0
BBX 5 7 2 0
BITMAP
d8
d8
e0
c0
c0
c0
c0
ENDCHAR
STARTCHAR s
ENCODING 115
SWIDTH 602 0
DWIDTH 7 0
BBX 6 7 1 0
BITMAP
7c
c0
e0
78
1c
0c
f8
ENDCHAR
STARTCHAR t
ENCODING 116
SWIDTH 602 0
DWIDTH 7 0
BBX 6 9 1 0
BITMAP
20
60
fc
60
60
60
60
60
3c
ENDCHAR
STARTCHAR u
ENCODING 117
SWIDTH 602 0
DWIDTH 7 0
BBX 6 7 1 0
BITMAP
cc
cc
cc
cc
cc
dc
6c
ENDCHAR
STARTCHAR v
ENCODING 118
SWIDTH 602 0
DWIDTH 7 0
BBX 6 7 1 0
BITMAP
cc
cc
cc
68
68
30
30
ENDCHAR
STARTCHAR w
ENCODING 119
SWIDTH 602 0
DWIDTH 7 0
BBX 6 7 1 0
BITMAP
c4
d4
d4
d4
68
68
68
ENDCHAR
STARTCHAR x
ENCODING 120
SWIDTH 602 0
DWIDTH 7 0
BBX 6 7 1 0
BITMAP
cc
cc
68
30
58
cc
cc
ENDCHAR
STARTCHAR y
ENCODING 121
SWIDTH 602 0
DWIDTH 7 0
BBX 6 9 1 -2
BITMAP
cc
cc
cc
68
68
30
30
20
60
ENDCHAR
STARTCHAR z
ENCODING 122
SWIDTH 602 0
DWIDTH 7 0
BBX 6 7 1 0
BITMAP
fc
1c
38
70
e0
c0
fc
ENDCHAR
STARTCHAR braceleft
ENCODING 123
SWIDTH 602 0
DWIDTH 7 0
BBX 4 11 2 -1
BITMAP
70
c0
c0
60
20
c0
20
60
c0
c0
70
ENDCHAR
STARTCHAR bar
ENCODING 124
SWIDTH 602 0
DWIDTH 7 0
BBX 2 11 3 -1
BITMAP
c0
c0
c0
c0
c0
c0
c0
c0
c0
c0
c0
ENDCHAR
STARTCHAR braceright
ENCODING 125
SWIDTH 602 0
DWIDTH 7 0
BBX 4 11 2 -1
BITMAP
e0
30
30
60
40
30
40
60
30
30
e0
ENDCHAR
STARTCHAR asciitilde
ENCODING 126
SWIDTH 602 0
DWIDTH 7 0
BBX 6 3 1 3
BITMAP
64
b4
98
ENDCHAR
STARTCHAR nobreakspace
ENCODING 160
SWIDTH 602 0
DWIDTH 7 0
BBX 1 1 0 0
BITMAP
00
ENDCHAR
STARTCHAR Aogonek
ENCODING 161
SWIDTH 602 0
DWIDTH 7 0
BBX 6 11 1 -2
BITMAP
30
30
58
58
58
fc
8c
8c
8c
40
30
ENDCHAR
STARTCHAR breve
ENCODING 162
SWIDTH 602 0
DWIDTH 7 0
BBX 4 2 2 8
BITMAP
90
60
ENDCHAR
STARTCHAR Lstroke
ENCODING 163
SWIDTH 602 0
DWIDTH 7 0
BBX 7 9 0 0
BITMAP
30
30
30
3c
f0
30
30
30
3e
ENDCHAR
STARTCHAR currency
ENCODING 164
SWIDTH 602 0
DWIDTH 7 0
BBX 7 9 0 0
BITMAP
82
c6
7c
4c
4c
4c
7c
c6
82
ENDCHAR
STARTCHAR Lcaron
ENCODING 165
SWIDTH 602 0
DWIDTH 7 0
BBX 5 10 2 0
BITMAP
18
d8
c8
d0
c0
c0
c0
c0
c0
f8
ENDCHAR
STARTCHAR Sacute
ENCODING 166
SWIDTH 602 0
DWIDTH 7 0
BBX 6 12 1 0
BITMAP
18
30
00
78
cc
c0
e0
78
1c
0c
cc
78
ENDCHAR
STARTCHAR section
ENCODING 167
SWIDTH 602 0
DWIDTH 7 0
BBX 6 10 1 -1
BITMAP
78
cc
e0
78
8c
c4
78
1c
cc
78
ENDCHAR
STARTCHAR diaeresis
ENCODING 168
SWIDTH 602 0
DWIDTH 7 0
BBX 4 2 2 8
BITMAP
90
90
ENDCHAR
STARTCHAR Scaron
ENCODING 169
SWIDTH 602 0
DWIDTH 7 0
BBX 6 12 1 0
BITMAP
58
30
00
78
cc
c0
e0
78
1c
0c
cc
78
ENDCHAR
STARTCHAR Scedilla
ENCODING 170
SWIDTH 602 0
DWIDTH 7 0
BBX 6 11 1 -2
BITMAP
78
cc
c0
e0
78
1c
0c
cc
78
10
60
ENDCHAR
STARTCHAR Tcaron
ENCODING 171
SWIDTH 602 0
DWIDTH 7 0
BBX 6 12 1 0
BITMAP
58
30
00
fc
30
30
30
30
30
30
30
30
ENDCHAR
STARTCHAR Zacute
ENCODING 172
SWIDTH 602 0
DWIDTH 7 0
BBX 6 12 1 0
BITMAP
18
30
00
fc
0c
1c
38
30
70
e0
c0
fc
ENDCHAR
STARTCHAR hyphen
ENCODING 173
SWIDTH 602 0
DWIDTH 7 0
BBX 3 1 2 4
BITMAP
e0
ENDCHAR
STARTCHAR Zcaron
ENCODING 174
SWIDTH 602 0
DWIDTH 7 0
BBX 6 12 1 0
BITMAP
58
30
00
fc
0c
1c
38
30
70
e0
c0
fc
ENDCHAR
STARTCHAR Zabovedot
ENCODING 175
SWIDTH 602 0
DWIDTH 7 0
BBX 6 12 1 0
BITMAP
30
30
00
fc
0c
1c
38
30
70
e0
c0
fc
ENDCHAR
STARTCHAR degree
ENCODING 176
SWIDTH 602 0
DWIDTH 7 0
BBX 4 4 2 5
BITMAP
60
d0
d0
60
ENDCHAR
STARTCHAR aogonek
ENCODING 177
SWIDTH 602 0
DWIDTH 7 0
BBX 6 9 1 -2
BITMAP
78
cc
0c
7c
cc
cc
74
40
30
ENDCHAR
STARTCHAR ogonek
ENCODING 178
SWIDTH 602 0
DWIDTH 7 0
BBX 3 2 3 -2
BITMAP
80
60
ENDCHAR
STARTCHAR lstroke
ENCODING 179
SWIDTH 602 0
DWIDTH 7 0
BBX 6 10 1 0
BITMAP
f0
30
30
3c
f0
30
30
30
30
30
ENDCHAR
STARTCHAR acute
ENCODING 180
SWIDTH 602 0
DWIDTH 7 0
BBX 3 2 3 8
BITMAP
60
c0
ENDCHAR
STARTCHAR lcaron
ENCODING 181
SWIDTH 833 0
DWIDTH 10 0
BBX 7 11 1 0
BITMAP
06
f6
32
34
30
30
30
30
30
30
30
ENDCHAR
STARTCHAR sacute
ENCODING 182
SWIDTH 602 0
DWIDTH 7 0
BBX 6 10 1 0
BITMAP
18
30
00
7c
c0
e0
78
1c
0c
f8
ENDCHAR
STARTCHAR caron
ENCODING 183
SWIDTH 602 0
DWIDTH 7 0
BBX 4 2 2 8
BITMAP
b0
60
ENDCHAR
STARTCHAR cedilla
ENCODING 184
SWIDTH 602 0
DWIDTH 7 0
BBX 3 2 2 -2
BITMAP
20
c0
ENDCHAR
STARTCHAR scaron
ENCODING 185
SWIDTH 602 0
DWIDTH 7 0
BBX 6 10 1 0
BITMAP
58
30
00
7c
c0
e0
78
1c
0c
f8
ENDCHAR
STARTCHAR scedilla
ENCODING 186
SWIDTH 602 0
DWIDTH 7 0
BBX 6 9 1 -2
BITMAP
7c
c0
e0
78
1c
0c
f8
10
60
ENDCHAR
STARTCHAR tcaron
ENCODING 187
SWIDTH 602 0
DWIDTH 7 0
BBX 6 12 1 0
BITMAP
0c
0c
04
28
60
fc
60
60
60
60
60
3c
ENDCHAR
STARTCHAR zacute
ENCODING 188
SWIDTH 602 0
DWIDTH 7 0
BBX 6 10 1 0
BITMAP
18
30
00
fc
1c
38
70
e0
c0
fc
ENDCHAR
STARTCHAR doubleacute
ENCODING 189
SWIDTH 602 0
DWIDTH 7 0
BBX 5 2 2 8
BITMAP
d8
90
ENDCHAR
STARTCHAR zcaron
ENCODING 190
SWIDTH 602 0
DWIDTH 7 0
BBX 6 10 1 0
BITMAP
58
30
00
fc
1c
38
70
e0
c0
fc
ENDCHAR
STARTCHAR zabovedot
ENCODING 191
SWIDTH 602 0
DWIDTH 7 0
BBX 6 10 1 0
BITMAP
30
30
00
fc
1c
38
70
e0
c0
fc
ENDCHAR
STARTCHAR Racute
ENCODING 192
SWIDTH 602 0
DWIDTH 7 0
BBX 6 12 1 0
BITMAP
18
30
00
f8
cc
cc
c8
f0
d8
d8
cc
cc
ENDCHAR
STARTCHAR Aacute
ENCODING 193
SWIDTH 602 0
DWIDTH 7 0
BBX 6 11 1 0
BITMAP
18
30
00
30
58
58
58
fc
8c
8c
8c
ENDCHAR
STARTCHAR Acircumflex
ENCODING 194
SWIDTH 602 0
DWIDTH 7 0
BBX 6 11 1 0
BITMAP
30
58
00
30
58
58
58
fc
8c
8c
8c
ENDCHAR
STARTCHAR Abreve
ENCODING 195
SWIDTH 602 0
DWIDTH 7 0
BBX 6 12 1 0
BITMAP
48
30
00
30
30
58
58
58
fc
8c
8c
8c
ENDCHAR
STARTCHAR Adiaeresis
ENCODING 196
SWIDTH 602 0
DWIDTH 7 0
BBX 6 11 1 0
BITMAP
48
48
00
30
58
58
58
fc
8c
8c
8c
ENDCHAR
STARTCHAR Lacute
ENCODING 197
SWIDTH 602 0
DWIDTH 7 0
BBX 5 12 2 0
BITMAP
60
c0
00
c0
c0
c0
c0
c0
c0
c0
c0
f8
ENDCHAR
STARTCHAR Cacute
ENCODING 198
SWIDTH 602 0
DWIDTH 7 0
BBX 6 12 1 0
BITMAP
0c
18
00
38
6c
c0
c0
c0
c0
c0
64
38
ENDCHAR
STARTCHAR Ccedilla
ENCODING 199
SWIDTH 602 0
DWIDTH 7 0
BBX 6 11 1 -2
BITMAP
38
6c
c0
c0
c0
c0
c0
64
38
10
60
ENDCHAR
STARTCHAR Ccaron
ENCODING 200
SWIDTH 602 0
DWIDTH 7 0
BBX 6 12 1 0
BITMAP
2c
18
00
38
6c
c0
c0
c0
c0
c0
64
38
ENDCHAR
STARTCHAR Eacute
ENCODING 201
SWIDTH 602 0
DWIDTH 7 0
BBX 5 11 2 0
BITMAP
30
60
00
f8
c0
c0
f0
c0
c0
c0
f8
ENDCHAR
STARTCHAR Eogonek
ENCODING 202
SWIDTH 602 0
DWIDTH 7 0
BBX 5 11 2 -2
BITMAP
f8
c0
c0
c0
f0
c0
c0
c0
f8
40
30
ENDCHAR
STARTCHAR Ediaeresis
ENCODING 203
SWIDTH 602 0
DWIDTH 7 0
BBX 5 11 2 0
BITMAP
48
48
00
f8
c0
c0
f0
c0
c0
c0
f8
ENDCHAR
STARTCHAR Ecaron
ENCODING 204
SWIDTH 602 0
DWIDTH 7 0
BBX 5 12 2 0
BITMAP
58
30
00
f8
c0
c0
c0
f0
c0
c0
c0
f8
ENDCHAR
STARTCHAR Iacute
ENCODING 205
SWIDTH 602 0
DWIDTH 7 0
BBX 6 11 1 0
BITMAP
18
30
00
fc
30
30
30
30
30
30
fc
ENDCHAR
STARTCHAR Icircumflex
ENCODING 206
SWIDTH 602 0
DWIDTH 7 0
BBX 6 11 1 0
BITMAP
30
58
00
fc
30
30
30
30
30
30
fc
ENDCHAR
STARTCHAR Dcaron
ENCODING 207
SWIDTH 602 0
DWIDTH 7 0
BBX 6 12 1 0
BITMAP
58
30
00
f0
d8
cc
cc
cc
cc
cc
d8
f0
ENDCHAR
STARTCHAR Dstroke
ENCODING 208
SWIDTH 602 0
DWIDTH 7 0
BBX 7 9 0 0
BITMAP
78
6c
66
66
f6
66
66
6c
78
ENDCHAR
STARTCHAR Nacute
ENCODING 209
SWIDTH 602 0
DWIDTH 7 0
BBX 6 12 1 0
BITMAP
18
30
00
c4
c4
e4
f4
b4
bc
9c
8c
8c
ENDCHAR
STARTCHAR Ncaron
ENCODING 210
SWIDTH 602 0
DWIDTH 7 0
BBX 6 12 1 0
BITMAP
58
30
00
c4
c4
e4
f4
b4
bc
9c
8c
8c
ENDCHAR
STARTCHAR Oacute
ENCODING 211
SWIDTH 602 0
DWIDTH 7 0
BBX 6 11 1 0
BITMAP
18
30
00
78
48
cc
cc
cc
cc
48
78
ENDCHAR
STARTCHAR Ocircumflex
ENCODING 212
SWIDTH 602 0
DWIDTH 7 0
BBX 6 11 1 0
BITMAP
30
58
00
78
48
cc
cc
cc
cc
48
78
ENDCHAR
STARTCHAR Odoubleacute
ENCODING 213
SWIDTH 602 0
DWIDTH 7 0
BBX 6 12 1 0
BITMAP
6c
48
00
78
48
cc
cc
cc
cc
cc
48
78
ENDCHAR
STARTCHAR Odiaeresis
ENCODING 214
SWIDTH 602 0
DWIDTH 7 0
BBX 6 11 1 0
BITMAP
48
48
00
78
48
cc
cc
cc
cc
48
78
ENDCHAR
STARTCHAR multiply
ENCODING 215
SWIDTH 602 0
DWIDTH 7 0
BBX 7 7 0 1
BITMAP
c2
64
38
18
2c
46
82
ENDCHAR
STARTCHAR Rcaron
ENCODING 216
SWIDTH 602 0
DWIDTH 7 0
BBX 6 12 1 0
BITMAP
58
30
00
f8
cc
cc
c8
f0
d8
d8
cc
cc
ENDCHAR
STARTCHAR Uring
ENCODING 217
SWIDTH 602 0
DWIDTH 7 0
BBX 6 13 1 0
BITMAP
30
58
30
00
c4
c4
c4
c4
c4
c4
c4
68
30
ENDCHAR
STARTCHAR Uacute
ENCODING 218
SWIDTH 602 0
DWIDTH 7 0
BBX 6 11 1 0
BITMAP
18
30
00
c4
c4
c4
c4
c4
c4
68
30
ENDCHAR
STARTCHAR Udoubleacute
ENCODING 219
SWIDTH 602 0
DWIDTH 7 0
BBX 6 12 1 0
BITMAP
6c
48
00
c4
c4
c4
c4
c4
c4
c4
68
30
ENDCHAR
STARTCHAR Udiaeresis
ENCODING 220
SWIDTH 602 0
DWIDTH 7 0
BBX 6 11 1 0
BITMAP
48
48
00
c4
c4
c4
c4
c4
c4
68
30
ENDCHAR
STARTCHAR Yacute
ENCODING 221
SWIDTH 602 0
DWIDTH 7 0
BBX 6 11 1 0
BITMAP
18
30
00
cc
cc
48
78
30
30
30
30
ENDCHAR
STARTCHAR Tcedilla
ENCODING 222
SWIDTH 602 0
DWIDTH 7 0
BBX 6 11 1 -2
BITMAP
fc
30
30
30
30
30
30
30
30
10
60
ENDCHAR
STARTCHAR ssharp
ENCODING 223
SWIDTH 602 0
DWIDTH 7 0
BBX 6 10 1 0
BITMAP
70
d8
c8
c8
d0
c8
cc
cc
cc
d8
ENDCHAR
STARTCHAR racute
ENCODING 224
SWIDTH 602 0
DWIDTH 7 0
BBX 5 10 2 0
BITMAP
18
30
00
d8
d8
e0
c0
c0
c0
c0
ENDCHAR
STARTCHAR aacute
ENCODING 225
SWIDTH 602 0
DWIDTH 7 0
BBX 6 10 1 0
BITMAP
18
30
00
78
cc
0c
7c
cc
cc
74
ENDCHAR
STARTCHAR acircumflex
ENCODING 226
SWIDTH 602 0
DWIDTH 7 0
BBX 6 10 1 0
BITMAP
30
58
00
78
cc
0c
7c
cc
cc
74
ENDCHAR
STARTCHAR abreve
ENCODING 227
SWIDTH 602 0
DWIDTH 7 0
BBX 6 10 1 0
BITMAP
48
30
00
78
cc
0c
7c
cc
cc
74
ENDCHAR
STARTCHAR adiaeresis
ENCODING 228
SWIDTH 602 0
DWIDTH 7 0
BBX 6 10 1 0
BITMAP
48
48
00
78
cc
0c
7c
cc
cc
74
ENDCHAR
STARTCHAR lacute
ENCODING 229
SWIDTH 602 0
DWIDTH 7 0
BBX 4 13 1 0
BITMAP
30
60
00
f0
30
30
30
30
30
30
30
30
30
ENDCHAR
STARTCHAR cacute
ENCODING 230
SWIDTH 602 0
DWIDTH 7 0
BBX 6 10 1 0
BITMAP
18
30
00
78
cc
c0
c0
c0
c4
78
ENDCHAR
STARTCHAR ccedilla
ENCODING 231
SWIDTH 602 0
DWIDTH 7 0
BBX 6 9 1 -2
BITMAP
78
cc
c0
c0
c0
c4
78
20
c0
ENDCHAR
STARTCHAR ccaron
ENCODING 232
SWIDTH 602 0
DWIDTH 7 0
BBX 6 10 1 0
BITMAP
58
30
00
78
cc
c0
c0
c0
c4
78
ENDCHAR
STARTCHAR eacute
ENCODING 233
SWIDTH 602 0
DWIDTH 7 0
BBX 6 10 1 0
BITMAP
18
30
00
78
cc
cc
fc
c0
c4
78
ENDCHAR
STARTCHAR eogonek
ENCODING 234
SWIDTH 602 0
DWIDTH 7 0
BBX 6 9 1 -2
BITMAP
78
cc
cc
fc
c0
c4
78
40
30
ENDCHAR
STARTCHAR ediaeresis
ENCODING 235
SWIDTH 602 0
DWIDTH 7 0
BBX 6 10 1 0
BITMAP
48
48
00
78
cc
cc
fc
c0
c4
78
ENDCHAR
STARTCHAR ecaron
ENCODING 236
SWIDTH 602 0
DWIDTH 7 0
BBX 6 10 1 0
BITMAP
58
30
00
78
cc
cc
fc
c0
c4
78
ENDCHAR
STARTCHAR iacute
ENCODING 237
SWIDTH 602 0
DWIDTH 7 0
BBX 5 10 1 0
BITMAP
18
30
00
f0
30
30
30
30
30
30
ENDCHAR
STARTCHAR icircumflex
ENCODING 238
SWIDTH 602 0
DWIDTH 7 0
BBX 5 10 1 0
BITMAP
30
58
00
f0
30
30
30
30
30
30
ENDCHAR
STARTCHAR dcaron
ENCODING 239
SWIDTH 833 0
DWIDTH 10 0
BBX 9 11 1 0
BITMAP
0180
0d80
0c80
0d00
7c00
cc00
cc00
cc00
cc00
dc00
6c00
ENDCHAR
STARTCHAR dstroke
ENCODING 240
SWIDTH 750 0
DWIDTH 9 0
BBX 8 10 1 0
BITMAP
0c
3f
0c
7c
cc
cc
cc
cc
dc
6c
ENDCHAR
STARTCHAR nacute
ENCODING 241
SWIDTH 602 0
DWIDTH 7 0
BBX 6 10 1 0
BITMAP
18
30
00
d8
ec
cc
cc
cc
cc
cc
ENDCHAR
STARTCHAR ncaron
ENCODING 242
SWIDTH 602 0
DWIDTH 7 0
BBX 6 10 1 0
BITMAP
58
30
00
d8
ec
cc
cc
cc
cc
cc
ENDCHAR
STARTCHAR oacute
ENCODING 243
SWIDTH 602 0
DWIDTH 7 0
BBX 6 10 1 0
BITMAP
18
30
00
78
cc
cc
cc
cc
cc
78
ENDCHAR
STARTCHAR ocircumflex
ENCODING 244
SWIDTH 602 0
DWIDTH 7 0
BBX 6 10 1 0
BITMAP
30
58
00
78
cc
cc
cc
cc
cc
78
ENDCHAR
STARTCHAR odoubleacute
ENCODING 245
SWIDTH 602 0
DWIDTH 7 0
BBX 6 10 1 0
BITMAP
6c
48
00
78
cc
cc
cc
cc
cc
78
ENDCHAR
STARTCHAR odiaeresis
ENCODING 246
SWIDTH 602 0
DWIDTH 7 0
BBX 6 10 1 0
BITMAP
48
48
00
78
cc
cc
cc
cc
cc
78
ENDCHAR
STARTCHAR division
ENCODING 247
SWIDTH 602 0
DWIDTH 7 0
BBX 7 7 0 1
BITMAP
10
10
00
fe
00
10
10
ENDCHAR
STARTCHAR rcaron
ENCODING 248
SWIDTH 602 0
DWIDTH 7 0
BBX 5 10 2 0
BITMAP
58
30
00
d8
d8
e0
c0
c0
c0
c0
ENDCHAR
STARTCHAR uring
ENCODING 249
SWIDTH 602 0
DWIDTH 7 0
BBX 6 11 1 0
BITMAP
30
58
30
00
cc
cc
cc
cc
cc
dc
6c
ENDCHAR
STARTCHAR uacute
ENCODING 250
SWIDTH 602 0
DWIDTH 7 0
BBX 6 10 1 0
BITMAP
18
30
00
cc
cc
cc
cc
cc
dc
6c
ENDCHAR
STARTCHAR udoubleacute
ENCODING 251
SWIDTH 602 0
DWIDTH 7 0
BBX 6 10 1 0
BITMAP
6c
48
00
cc
cc
cc
cc
cc
dc
6c
ENDCHAR
STARTCHAR udiaeresis
ENCODING 252
SWIDTH 602 0
DWIDTH 7 0
BBX 6 10 1 0
BITMAP
48
48
00
cc
cc
cc
cc
cc
dc
6c
ENDCHAR
STARTCHAR yacute
ENCODING 253
SWIDTH 602 0
DWIDTH 7 0
BBX 6 12 1 -2
BITMAP
18
30
00
cc
cc
cc
68
68
30
30
20
60
ENDCHAR
STARTCHAR tcedilla
ENCODING 254
SWIDTH 602 0
DWIDTH 7 0
BBX 6 11 1 -2
BITMAP
20
60
fc
60
60
60
60
60
3c
10
60
ENDCHAR
STARTCHAR abovedot
ENCODING 255
SWIDTH 602 0
DWIDTH 7 0
BBX 2 2 3 8
BITMAP
c0
c0
ENDCHAR
ENDFONT
